<?xml version="1.0" encoding="UTF-8" standalone="no"?><svg xmlns="http://www.w3.org/2000/svg" xmlns:xlink="http://www.w3.org/1999/xlink" contentStyleType="text/css" height="278px" preserveAspectRatio="none" style="width:286px;height:278px;background:#FFFFFF;" version="1.1" viewBox="0 0 286 278" width="286px" zoomAndPan="magnify"><defs/><g><!--MD5=[426e75666daf533f17226ff4c87e20fd]
class Shape--><g id="elem_Shape"><rect codeLine="1" fill="#F1F1F1" height="48" id="Shape" rx="2.5" ry="2.5" style="stroke:#181818;stroke-width:0.5;" width="74" x="76" y="7"/><ellipse cx="91" cy="23" fill="#B4A7E5" rx="11" ry="11" style="stroke:#181818;stroke-width:1.0;"/><path d="M86.9277,18.7651 L86.9277,16.6069 L94.3071,16.6069 L94.3071,18.7651 L91.8418,18.7651 L91.8418,26.8418 L94.3071,26.8418 L94.3071,29 L86.9277,29 L86.9277,26.8418 L89.3931,26.8418 L89.3931,18.7651 Z " fill="#000000"/><text fill="#000000" font-family="sans-serif" font-size="14" font-style="italic" lengthAdjust="spacing" textLength="42" x="105" y="28.291">Shape</text><line style="stroke:#181818;stroke-width:0.5;" x1="77" x2="149" y1="39" y2="39"/><line style="stroke:#181818;stroke-width:0.5;" x1="77" x2="149" y1="47" y2="47"/></g><!--MD5=[b6aed8f55a7bdd1ed0168b25c887807c]
class Circular--><g id="elem_Circular"><rect codeLine="3" fill="#F1F1F1" height="48" id="Circular" rx="2.5" ry="2.5" style="stroke:#181818;stroke-width:0.5;" width="86" x="7" y="115"/><ellipse cx="22" cy="131" fill="#ADD1B2" rx="11" ry="11" style="stroke:#181818;stroke-width:1.0;"/><path d="M24.9731,136.6431 Q24.3921,136.9419 23.7529,137.0913 Q23.1138,137.2407 22.4082,137.2407 Q19.9014,137.2407 18.5815,135.5889 Q17.2617,133.937 17.2617,130.8159 Q17.2617,127.6865 18.5815,126.0347 Q19.9014,124.3828 22.4082,124.3828 Q23.1138,124.3828 23.7612,124.5322 Q24.4087,124.6816 24.9731,124.9805 L24.9731,127.7031 Q24.3423,127.1221 23.7488,126.8523 Q23.1553,126.5825 22.5244,126.5825 Q21.1797,126.5825 20.4949,127.6492 Q19.8101,128.7158 19.8101,130.8159 Q19.8101,132.9077 20.4949,133.9744 Q21.1797,135.041 22.5244,135.041 Q23.1553,135.041 23.7488,134.7712 Q24.3423,134.5015 24.9731,133.9204 Z " fill="#000000"/><text fill="#000000" font-family="sans-serif" font-size="14" lengthAdjust="spacing" textLength="54" x="36" y="136.291">Circular</text><line style="stroke:#181818;stroke-width:0.5;" x1="8" x2="92" y1="147" y2="147"/><line style="stroke:#181818;stroke-width:0.5;" x1="8" x2="92" y1="155" y2="155"/></g><!--MD5=[a64a0ec932fc51e19bfc412092b40349]
class Cornered--><g id="elem_Cornered"><rect codeLine="4" fill="#F1F1F1" height="48" id="Cornered" rx="2.5" ry="2.5" style="stroke:#181818;stroke-width:0.5;" width="97" x="128.5" y="115"/><ellipse cx="143.5" cy="131" fill="#ADD1B2" rx="11" ry="11" style="stroke:#181818;stroke-width:1.0;"/><path d="M146.4731,136.6431 Q145.8921,136.9419 145.2529,137.0913 Q144.6138,137.2407 143.9082,137.2407 Q141.4014,137.2407 140.0815,135.5889 Q138.7617,133.937 138.7617,130.8159 Q138.7617,127.6865 140.0815,126.0347 Q141.4014,124.3828 143.9082,124.3828 Q144.6138,124.3828 145.2612,124.5322 Q145.9087,124.6816 146.4731,124.9805 L146.4731,127.7031 Q145.8423,127.1221 145.2488,126.8523 Q144.6553,126.5825 144.0244,126.5825 Q142.6797,126.5825 141.9949,127.6492 Q141.3101,128.7158 141.3101,130.8159 Q141.3101,132.9077 141.9949,133.9744 Q142.6797,135.041 144.0244,135.041 Q144.6553,135.041 145.2488,134.7712 Q145.8423,134.5015 146.4731,133.9204 Z " fill="#000000"/><text fill="#000000" font-family="sans-serif" font-size="14" lengthAdjust="spacing" textLength="65" x="157.5" y="136.291">Cornered</text><line style="stroke:#181818;stroke-width:0.5;" x1="129.5" x2="224.5" y1="147" y2="147"/><line style="stroke:#181818;stroke-width:0.5;" x1="129.5" x2="224.5" y1="155" y2="155"/></g><!--MD5=[b5313cd49da22b0744b541f414f8445e]
class Rectangle--><g id="elem_Rectangle"><rect codeLine="5" fill="#F1F1F1" height="48" id="Rectangle" rx="2.5" ry="2.5" style="stroke:#181818;stroke-width:0.5;" width="99" x="64.5" y="223"/><ellipse cx="79.5" cy="239" fill="#ADD1B2" rx="11" ry="11" style="stroke:#181818;stroke-width:1.0;"/><path d="M82.4731,244.6431 Q81.8921,244.9419 81.2529,245.0913 Q80.6138,245.2407 79.9082,245.2407 Q77.4014,245.2407 76.0815,243.5889 Q74.7617,241.937 74.7617,238.8159 Q74.7617,235.6865 76.0815,234.0347 Q77.4014,232.3828 79.9082,232.3828 Q80.6138,232.3828 81.2612,232.5322 Q81.9087,232.6816 82.4731,232.9805 L82.4731,235.7031 Q81.8423,235.1221 81.2488,234.8523 Q80.6553,234.5825 80.0244,234.5825 Q78.6797,234.5825 77.9949,235.6492 Q77.3101,236.7158 77.3101,238.8159 Q77.3101,240.9077 77.9949,241.9744 Q78.6797,243.041 80.0244,243.041 Q80.6553,243.041 81.2488,242.7712 Q81.8423,242.5015 82.4731,241.9204 Z " fill="#000000"/><text fill="#000000" font-family="sans-serif" font-size="14" lengthAdjust="spacing" textLength="67" x="93.5" y="244.291">Rectangle</text><line style="stroke:#181818;stroke-width:0.5;" x1="65.5" x2="162.5" y1="255" y2="255"/><line style="stroke:#181818;stroke-width:0.5;" x1="65.5" x2="162.5" y1="263" y2="263"/></g><!--MD5=[5655ee3e2a0d028d03fe20f829576392]
class Square--><g id="elem_Square"><rect codeLine="6" fill="#F1F1F1" height="48" id="Square" rx="2.5" ry="2.5" style="stroke:#181818;stroke-width:0.5;" width="80" x="199" y="223"/><ellipse cx="214" cy="239" fill="#ADD1B2" rx="11" ry="11" style="stroke:#181818;stroke-width:1.0;"/><path d="M216.9731,244.6431 Q216.3921,244.9419 215.7529,245.0913 Q215.1138,245.2407 214.4082,245.2407 Q211.9014,245.2407 210.5815,243.5889 Q209.2617,241.937 209.2617,238.8159 Q209.2617,235.6865 210.5815,234.0347 Q211.9014,232.3828 214.4082,232.3828 Q215.1138,232.3828 215.7612,232.5322 Q216.4087,232.6816 216.9731,232.9805 L216.9731,235.7031 Q216.3423,235.1221 215.7488,234.8523 Q215.1553,234.5825 214.5244,234.5825 Q213.1797,234.5825 212.4949,235.6492 Q211.8101,236.7158 211.8101,238.8159 Q211.8101,240.9077 212.4949,241.9744 Q213.1797,243.041 214.5244,243.041 Q215.1553,243.041 215.7488,242.7712 Q216.3423,242.5015 216.9731,241.9204 Z " fill="#000000"/><text fill="#000000" font-family="sans-serif" font-size="14" lengthAdjust="spacing" textLength="48" x="228" y="244.291">Square</text><line style="stroke:#181818;stroke-width:0.5;" x1="200" x2="278" y1="255" y2="255"/><line style="stroke:#181818;stroke-width:0.5;" x1="200" x2="278" y1="263" y2="263"/></g><!--MD5=[f1f23f2ef672f7bdf09de45996869533]
reverse link Shape to Circular--><g id="link_Shape_Circular"><path d="M88.86,72.61 C80.4,86.85 71.19,102.35 63.86,114.68 " fill="none" id="Shape-backto-Circular" style="stroke:#181818;stroke-width:1.0;stroke-dasharray:7.0,7.0;"/><polygon fill="none" points="83.09,68.62,99.33,55,95.13,75.77,83.09,68.62" style="stroke:#181818;stroke-width:1.0;"/></g><!--MD5=[ddba5e39e7a2152b122fffd4351fb1f4]
reverse link Shape to Cornered--><g id="link_Shape_Cornered"><path d="M137.23,72.13 C145.91,86.5 155.39,102.21 162.92,114.68 " fill="none" id="Shape-backto-Cornered" style="stroke:#181818;stroke-width:1.0;stroke-dasharray:7.0,7.0;"/><polygon fill="none" points="131.23,75.74,126.89,55,143.22,68.5,131.23,75.74" style="stroke:#181818;stroke-width:1.0;"/></g><!--MD5=[acc990f79c831d6fb35be1cc4822137e]
reverse link Cornered to Rectangle--><g id="link_Cornered_Rectangle"><path d="M152.86,180.61 C144.4,194.85 135.19,210.35 127.86,222.68 " fill="none" id="Cornered-backto-Rectangle" style="stroke:#181818;stroke-width:1.0;stroke-dasharray:7.0,7.0;"/><polygon fill="none" points="147.09,176.62,163.33,163,159.13,183.77,147.09,176.62" style="stroke:#181818;stroke-width:1.0;"/></g><!--MD5=[e8edd47fb66887ac6636ef4ad11981de]
reverse link Cornered to Square--><g id="link_Cornered_Square"><path d="M200.75,180.61 C209.08,194.85 218.15,210.35 225.36,222.68 " fill="none" id="Cornered-backto-Square" style="stroke:#181818;stroke-width:1.0;stroke-dasharray:7.0,7.0;"/><polygon fill="none" points="194.51,183.8,190.45,163,206.59,176.73,194.51,183.8" style="stroke:#181818;stroke-width:1.0;"/></g><!--MD5=[ca6a21b1d3e89eeea2829e047683f53d]
@startuml
interface Shape

class Circular implements Shape
class Cornered implements Shape
class Rectangle implements Cornered
class Square implements Cornered
@enduml

PlantUML version 1.2022.7(Mon Aug 22 19:01:30 CEST 2022)
(GPL source distribution)
Java Runtime: OpenJDK Runtime Environment
JVM: OpenJDK 64-Bit Server VM
Default Encoding: UTF-8
Language: en
Country: GB
--></g></svg>